<?xml version="1.0" encoding="UTF-8" standalone="no"?>
<!-- Generator: Adobe Illustrator 19.0.0, SVG Export Plug-In . SVG Version: 6.00 Build 0)  -->

<svg
   xmlns:dc="http://purl.org/dc/elements/1.1/"
   xmlns:cc="http://creativecommons.org/ns#"
   xmlns:rdf="http://www.w3.org/1999/02/22-rdf-syntax-ns#"
   xmlns:svg="http://www.w3.org/2000/svg"
   xmlns="http://www.w3.org/2000/svg"
   xmlns:sodipodi="http://sodipodi.sourceforge.net/DTD/sodipodi-0.dtd"
   xmlns:inkscape="http://www.inkscape.org/namespaces/inkscape"
   version="1.1"
   id="Capa_1"
   x="0px"
   y="0px"
   viewBox="0 0 508 508"
   style="enable-background:new 0 0 508 508;"
   xml:space="preserve"
   sodipodi:docname="icon-metro.svg"
   inkscape:version="0.92.4 (5da689c313, 2019-01-14)"><metadata
   id="metadata995"><rdf:RDF><cc:Work
       rdf:about=""><dc:format>image/svg+xml</dc:format><dc:type
         rdf:resource="http://purl.org/dc/dcmitype/StillImage" /></cc:Work></rdf:RDF></metadata><defs
   id="defs993" /><sodipodi:namedview
   pagecolor="#ffffff"
   bordercolor="#666666"
   borderopacity="1"
   objecttolerance="10"
   gridtolerance="10"
   guidetolerance="10"
   inkscape:pageopacity="0"
   inkscape:pageshadow="2"
   inkscape:window-width="1920"
   inkscape:window-height="1017"
   id="namedview991"
   showgrid="false"
   inkscape:zoom="0.46456693"
   inkscape:cx="254"
   inkscape:cy="254"
   inkscape:window-x="1358"
   inkscape:window-y="-8"
   inkscape:window-maximized="1"
   inkscape:current-layer="Capa_1" />
<g
   id="g934"
   style="fill:#ffffff">
	<g
   id="g932"
   style="fill:#ffffff">
		<path
   d="M392.65,0h-277.4c-31.5,0-57.1,25.6-57.1,57.1v277.4c0,31.5,25.6,57.1,57.1,57.1h13.9l-29.9,112.1l15.7,4.3l4.9-18.4    h268.2l4.9,18.4l15.8-4.2l-29.9-112.1h13.9c31.5,0,57.1-25.6,57.1-57.1V57.1C449.75,25.6,424.15,0,392.65,0z M383.65,473.3h-259.4    l8.7-32.6h242L383.65,473.3z M137.25,424.3l8.7-32.6h216l8.7,32.6H137.25z M433.45,334.5c0,22.5-18.3,40.8-40.8,40.8h-277.4    c-22.5,0-40.8-18.3-40.8-40.8V57.1c0-22.5,18.3-40.8,40.8-40.8h277.4c22.5,0,40.8,18.3,40.8,40.8V334.5z"
   id="path930"
   style="fill:#ffffff" />
	</g>
</g>
<g
   id="g940"
   style="fill:#ffffff">
	<g
   id="g938"
   style="fill:#ffffff">
		<path
   d="M384.55,81.6h-261.2c-13.5,0-24.5,11-24.5,24.5V204c0,13.5,11,24.5,24.5,24.5h261.1c13.5,0,24.5-11,24.5-24.5v-97.9    C408.95,92.6,398.05,81.6,384.55,81.6z M245.85,212.1h-122.5c-4.5,0.1-8.1-3.6-8.1-8.1v-97.9c0-4.5,3.7-8.2,8.2-8.2h122.4V212.1z     M392.75,204h-0.1c0,4.5-3.7,8.2-8.2,8.2h-122.3V97.9h122.4c4.5,0,8.2,3.7,8.2,8.2V204z"
   id="path936"
   style="fill:#ffffff" />
	</g>
</g>
<g
   id="g946"
   style="fill:#ffffff">
	<g
   id="g944"
   style="fill:#ffffff">
		<path
   d="M172.35,261.1c-22.5,0-40.8,18.3-40.8,40.8s18.3,40.8,40.8,40.8s40.8-18.3,40.8-40.8S194.85,261.1,172.35,261.1z     M172.35,326.4c-13.5,0-24.5-11-24.5-24.5s11-24.5,24.5-24.5s24.5,11,24.5,24.5S185.85,326.4,172.35,326.4z"
   id="path942"
   style="fill:#ffffff" />
	</g>
</g>
<g
   id="g952"
   style="fill:#ffffff">
	<g
   id="g950"
   style="fill:#ffffff">
		<path
   d="M335.55,261.1c-22.5,0-40.8,18.3-40.8,40.8s18.3,40.8,40.8,40.8s40.8-18.3,40.8-40.8S358.05,261.1,335.55,261.1z     M335.55,326.4c-13.5,0-24.5-11-24.5-24.5s11-24.5,24.5-24.5s24.5,11,24.5,24.5S349.05,326.4,335.55,326.4z"
   id="path948"
   style="fill:#ffffff" />
	</g>
</g>
<g
   id="g958"
   style="fill:#ffffff">
	<g
   id="g956"
   style="fill:#ffffff">
		<rect
   x="172.35"
   y="40.8"
   width="163.2"
   height="16.3"
   id="rect954"
   style="fill:#ffffff" />
	</g>
</g>
<g
   id="g960"
   style="fill:#ffffff">
</g>
<g
   id="g962"
   style="fill:#ffffff">
</g>
<g
   id="g964"
   style="fill:#ffffff">
</g>
<g
   id="g966"
   style="fill:#ffffff">
</g>
<g
   id="g968"
   style="fill:#ffffff">
</g>
<g
   id="g970"
   style="fill:#ffffff">
</g>
<g
   id="g972"
   style="fill:#ffffff">
</g>
<g
   id="g974"
   style="fill:#ffffff">
</g>
<g
   id="g976"
   style="fill:#ffffff">
</g>
<g
   id="g978"
   style="fill:#ffffff">
</g>
<g
   id="g980"
   style="fill:#ffffff">
</g>
<g
   id="g982"
   style="fill:#ffffff">
</g>
<g
   id="g984"
   style="fill:#ffffff">
</g>
<g
   id="g986"
   style="fill:#ffffff">
</g>
<g
   id="g988"
   style="fill:#ffffff">
</g>
</svg>