<?xml version="1.0" encoding="UTF-8" standalone="no"?>
<svg
   xmlns:dc="http://purl.org/dc/elements/1.1/"
   xmlns:cc="http://creativecommons.org/ns#"
   xmlns:rdf="http://www.w3.org/1999/02/22-rdf-syntax-ns#"
   xmlns:svg="http://www.w3.org/2000/svg"
   xmlns="http://www.w3.org/2000/svg"
   xmlns:sodipodi="http://sodipodi.sourceforge.net/DTD/sodipodi-0.dtd"
   xmlns:inkscape="http://www.inkscape.org/namespaces/inkscape"
   viewBox="0 0 64 64"
   width="512"
   height="512"
   version="1.1"
   id="svg6751"
   sodipodi:docname="icon-hev.svg"
   inkscape:version="0.92.4 (5da689c313, 2019-01-14)">
  <metadata
     id="metadata6757">
    <rdf:RDF>
      <cc:Work
         rdf:about="">
        <dc:format>image/svg+xml</dc:format>
        <dc:type
           rdf:resource="http://purl.org/dc/dcmitype/StillImage" />
      </cc:Work>
    </rdf:RDF>
  </metadata>
  <defs
     id="defs6755" />
  <sodipodi:namedview
     pagecolor="#ffffff"
     bordercolor="#666666"
     borderopacity="1"
     objecttolerance="10"
     gridtolerance="10"
     guidetolerance="10"
     inkscape:pageopacity="0"
     inkscape:pageshadow="2"
     inkscape:window-width="1920"
     inkscape:window-height="1017"
     id="namedview6753"
     showgrid="false"
     inkscape:zoom="0.4609375"
     inkscape:cx="256"
     inkscape:cy="256"
     inkscape:window-x="1358"
     inkscape:window-y="-8"
     inkscape:window-maximized="1"
     inkscape:current-layer="svg6751" />
  <g
     id="Train"
     style="fill:#ffffff">
    <path
       d="M53,49V21a7.009,7.009,0,0,0-7-7H41V13a5.006,5.006,0,0,0-5-5H33V4H48V2H16V4H31V8H28a5.006,5.006,0,0,0-5,5v1H18a7.009,7.009,0,0,0-7,7V49a5.006,5.006,0,0,0,5,5h1.382l-1,2H13v2h2.382l-1,2H11v2H53V60H49.618l-1-2H51V56H47.618l-1-2H48A5.006,5.006,0,0,0,53,49ZM25,13a3,3,0,0,1,3-3h8a3,3,0,0,1,3,3v1H25ZM13,21a5.006,5.006,0,0,1,5-5H46a5.006,5.006,0,0,1,5,5V40H49V23a3,3,0,0,0-3-3H18a3,3,0,0,0-3,3V40H13Zm34,2V40H33V22H46A1,1,0,0,1,47,23ZM31,22V40H17V23a1,1,0,0,1,1-1ZM47.382,60H16.618l1-2H46.382ZM18.618,56l1-2H44.382l1,2ZM16,52a3,3,0,0,1-3-3V42H51v7a3,3,0,0,1-3,3Z"
       id="path6734"
       style="fill:#ffffff" />
    <path
       d="M25,44H21a2,2,0,0,0-2,2v2a2,2,0,0,0,2,2h4a2,2,0,0,0,2-2V46A2,2,0,0,0,25,44Zm-4,4V46h4l0,2Z"
       id="path6736"
       style="fill:#ffffff" />
    <path
       d="M43,44H39a2,2,0,0,0-2,2v2a2,2,0,0,0,2,2h4a2,2,0,0,0,2-2V46A2,2,0,0,0,43,44Zm0,4H39V46h4Z"
       id="path6738"
       style="fill:#ffffff" />
    <rect
       x="29"
       y="45"
       width="6"
       height="2"
       id="rect6740"
       style="fill:#ffffff" />
    <rect
       x="29"
       y="48"
       width="6"
       height="2"
       id="rect6742"
       style="fill:#ffffff" />
    <circle
       cx="32"
       cy="12"
       r="1"
       id="circle6744"
       style="fill:#ffffff" />
    <circle
       cx="36"
       cy="12"
       r="1"
       id="circle6746"
       style="fill:#ffffff" />
    <circle
       cx="28"
       cy="12"
       r="1"
       id="circle6748"
       style="fill:#ffffff" />
  </g>
</svg>
