<?xml version="1.0" encoding="UTF-8" standalone="no"?>
<!-- Generator: Adobe Illustrator 19.0.0, SVG Export Plug-In . SVG Version: 6.00 Build 0)  -->

<svg
   xmlns:dc="http://purl.org/dc/elements/1.1/"
   xmlns:cc="http://creativecommons.org/ns#"
   xmlns:rdf="http://www.w3.org/1999/02/22-rdf-syntax-ns#"
   xmlns:svg="http://www.w3.org/2000/svg"
   xmlns="http://www.w3.org/2000/svg"
   xmlns:sodipodi="http://sodipodi.sourceforge.net/DTD/sodipodi-0.dtd"
   xmlns:inkscape="http://www.inkscape.org/namespaces/inkscape"
   version="1.1"
   id="Capa_1"
   x="0px"
   y="0px"
   viewBox="0 0 512 512"
   style="enable-background:new 0 0 512 512;"
   xml:space="preserve"
   sodipodi:docname="icon-tram.svg"
   inkscape:version="0.92.4 (5da689c313, 2019-01-14)"><metadata
   id="metadata4781"><rdf:RDF><cc:Work
       rdf:about=""><dc:format>image/svg+xml</dc:format><dc:type
         rdf:resource="http://purl.org/dc/dcmitype/StillImage" /></cc:Work></rdf:RDF></metadata><defs
   id="defs4779" /><sodipodi:namedview
   pagecolor="#ffffff"
   bordercolor="#666666"
   borderopacity="1"
   objecttolerance="10"
   gridtolerance="10"
   guidetolerance="10"
   inkscape:pageopacity="0"
   inkscape:pageshadow="2"
   inkscape:window-width="1920"
   inkscape:window-height="1017"
   id="namedview4777"
   showgrid="false"
   inkscape:zoom="0.4609375"
   inkscape:cx="256"
   inkscape:cy="256"
   inkscape:window-x="1358"
   inkscape:window-y="-8"
   inkscape:window-maximized="1"
   inkscape:current-layer="Capa_1" />
<g
   id="g4684"
   style="fill:#000000">
	<g
   id="g4682"
   style="fill:#000000">
		<path
   d="M366.624,136.704c-1.045-16.853-15.061-30.037-31.936-30.037H177.291c-16.853,0-30.891,13.184-31.936,30.037    l-6.699,108.629c0,29.696,89.813,32,117.333,32s117.333-2.304,117.312-32.64L366.624,136.704z M255.989,256    c-54.677,0-88.085-8.128-95.829-13.056l6.485-104.939c0.341-5.611,5.013-10.005,10.645-10.005h157.397    c5.632,0,10.304,4.395,10.645,10.027l6.507,104.917C344.117,247.851,310.709,256,255.989,256z"
   id="path4680"
   style="fill:#000000" />
	</g>
</g>
<g
   id="g4690"
   style="fill:#000000">
	<g
   id="g4688"
   style="fill:#000000">
		<path
   d="M159.989,320c-17.643,0-32,14.357-32,32c0,17.643,14.357,32,32,32s32-14.357,32-32    C191.989,334.357,177.632,320,159.989,320z M159.989,362.667c-5.888,0-10.667-4.779-10.667-10.667    c0-5.888,4.779-10.667,10.667-10.667s10.667,4.779,10.667,10.667C170.656,357.888,165.877,362.667,159.989,362.667z"
   id="path4686"
   style="fill:#000000" />
	</g>
</g>
<g
   id="g4696"
   style="fill:#000000">
	<g
   id="g4694"
   style="fill:#000000">
		<path
   d="M351.989,320c-17.643,0-32,14.357-32,32c0,17.643,14.357,32,32,32c17.643,0,32-14.357,32-32    C383.989,334.357,369.632,320,351.989,320z M351.989,362.667c-5.888,0-10.667-4.779-10.667-10.667    c0-5.888,4.779-10.667,10.667-10.667c5.888,0,10.667,4.779,10.667,10.667C362.656,357.888,357.877,362.667,351.989,362.667z"
   id="path4692"
   style="fill:#000000" />
	</g>
</g>
<g
   id="g4702"
   style="fill:#000000">
	<g
   id="g4700"
   style="fill:#000000">
		<path
   d="M287.989,341.333h-64c-5.888,0-10.667,4.779-10.667,10.667c0,5.888,4.779,10.667,10.667,10.667h64    c5.888,0,10.667-4.779,10.667-10.667C298.656,346.112,293.877,341.333,287.989,341.333z"
   id="path4698"
   style="fill:#000000" />
	</g>
</g>
<g
   id="g4708"
   style="fill:#000000">
	<g
   id="g4706"
   style="fill:#000000">
		<path
   d="M359.904,24.832C357.6,22.293,335.093,0,255.989,0S154.379,22.293,152.096,24.832c-3.861,4.267-3.541,10.709,0.619,14.72    c4.139,4.011,10.859,3.883,14.955-0.149c0.192-0.192,19.307-18.069,88.32-18.069c68.907,0,88.064,17.835,88.085,17.835    c2.112,2.325,5.013,3.499,7.915,3.499c2.56,0,5.12-0.917,7.168-2.752C363.531,35.947,363.872,29.205,359.904,24.832z"
   id="path4704"
   style="fill:#000000" />
	</g>
</g>
<g
   id="g4714"
   style="fill:#000000">
	<g
   id="g4712"
   style="fill:#000000">
		<path
   d="M293.472,12.181c-5.056-3.051-11.584-1.408-14.635,3.648l-22.848,38.101L233.12,15.829    c-3.029-5.035-9.579-6.699-14.635-3.648c-5.035,3.029-6.677,9.579-3.648,14.635l32,53.333c1.941,3.221,5.397,5.184,9.152,5.184    c3.755,0,7.211-1.963,9.131-5.184l32-53.333C300.149,21.76,298.528,15.211,293.472,12.181z"
   id="path4710"
   style="fill:#000000" />
	</g>
</g>
<g
   id="g4720"
   style="fill:#000000">
	<g
   id="g4718"
   style="fill:#000000">
		<path
   d="M407.968,113.792C406.112,85.867,382.731,64,354.741,64H157.237c-27.989,0-51.371,21.867-53.227,49.792L85.323,394.667    c0,31.424,89.941,53.333,170.667,53.333s170.667-21.909,170.645-54.037L407.968,113.792z M255.989,426.667    c-86.763,0-144.896-23.552-149.355-31.296L125.323,115.2c1.109-16.747,15.125-29.867,31.915-29.867h197.504    c16.789,0,30.805,13.12,31.915,29.867l18.859,278.293C400.885,403.115,342.752,426.667,255.989,426.667z"
   id="path4716"
   style="fill:#000000" />
	</g>
</g>
<g
   id="g4726"
   style="fill:#000000">
	<g
   id="g4724"
   style="fill:#000000">
		<path
   d="M145.611,418.56c-4.459-3.84-11.2-3.328-15.04,1.152l-64,74.667c-3.84,4.48-3.328,11.2,1.152,15.04    c2.005,1.728,4.48,2.581,6.933,2.581c3.008,0,5.995-1.259,8.107-3.733l64-74.667C150.603,429.12,150.091,422.4,145.611,418.56z"
   id="path4722"
   style="fill:#000000" />
	</g>
</g>
<g
   id="g4732"
   style="fill:#000000">
	<g
   id="g4730"
   style="fill:#000000">
		<path
   d="M445.429,494.379l-64-74.667c-3.84-4.48-10.56-4.992-15.04-1.152c-4.48,3.84-4.992,10.581-1.152,15.04l64,74.667    c2.091,2.475,5.077,3.733,8.085,3.733c2.453,0,4.928-0.853,6.955-2.581C448.757,505.579,449.269,498.837,445.429,494.379z"
   id="path4728"
   style="fill:#000000" />
	</g>
</g>
<g
   id="g4738"
   style="fill:#000000">
	<g
   id="g4736"
   style="fill:#000000">
		<path
   d="M415.989,469.333h-320c-5.888,0-10.667,4.779-10.667,10.667c0,5.888,4.779,10.667,10.667,10.667h320    c5.888,0,10.667-4.779,10.667-10.667C426.656,474.112,421.877,469.333,415.989,469.333z"
   id="path4734"
   style="fill:#000000" />
	</g>
</g>
<g
   id="g4744"
   style="fill:#000000">
	<g
   id="g4742"
   style="fill:#000000">
		<path
   d="M373.323,426.667H138.656c-5.888,0-10.667,4.779-10.667,10.667c0,5.888,4.779,10.667,10.667,10.667h234.667    c5.888,0,10.667-4.779,10.667-10.667C383.989,431.445,379.211,426.667,373.323,426.667z"
   id="path4740"
   style="fill:#000000" />
	</g>
</g>
<g
   id="g4746">
</g>
<g
   id="g4748">
</g>
<g
   id="g4750">
</g>
<g
   id="g4752">
</g>
<g
   id="g4754">
</g>
<g
   id="g4756">
</g>
<g
   id="g4758">
</g>
<g
   id="g4760">
</g>
<g
   id="g4762">
</g>
<g
   id="g4764">
</g>
<g
   id="g4766">
</g>
<g
   id="g4768">
</g>
<g
   id="g4770">
</g>
<g
   id="g4772">
</g>
<g
   id="g4774">
</g>
</svg>